<?xml version="1.0" encoding="UTF-8" standalone="no"?>
<!DOCTYPE svg PUBLIC "-//W3C//DTD SVG 1.1//EN"
 "http://www.w3.org/Graphics/SVG/1.1/DTD/svg11.dtd">
<!-- Generated by graphviz version 14.1.1 (20251213.1925)
 -->
<!-- Title: PopupPageWorkflow Pages: 1 -->
<svg width="1767pt" height="1253pt"
 viewBox="0.00 0.00 1767.00 1253.00" xmlns="http://www.w3.org/2000/svg" xmlns:xlink="http://www.w3.org/1999/xlink">
<g id="graph0" class="graph" transform="scale(1 1) rotate(0) translate(4 1249.2)">
<title>PopupPageWorkflow</title>
<polygon fill="white" stroke="none" points="-4,4 -4,-1249.2 1763.16,-1249.2 1763.16,4 -4,4"/>
<!-- user_opens_panel -->
<g id="node1" class="node">
<title>user_opens_panel</title>
<path fill="#f7fafc" stroke="#64748b" d="M958.65,-1245.2C958.65,-1245.2 854.38,-1245.2 854.38,-1245.2 848.38,-1245.2 842.38,-1239.2 842.38,-1233.2 842.38,-1233.2 842.38,-1221.2 842.38,-1221.2 842.38,-1215.2 848.38,-1209.2 854.38,-1209.2 854.38,-1209.2 958.65,-1209.2 958.65,-1209.2 964.65,-1209.2 970.65,-1215.2 970.65,-1221.2 970.65,-1221.2 970.65,-1233.2 970.65,-1233.2 970.65,-1239.2 964.65,-1245.2 958.65,-1245.2"/>
<text xml:space="preserve" text-anchor="middle" x="906.51" y="-1228.75" font-family="Helvetica,sans-Serif" font-size="11.00">User opens side panel</text>
<text xml:space="preserve" text-anchor="middle" x="906.51" y="-1216.75" font-family="Helvetica,sans-Serif" font-size="11.00">(src/popup/popup.html)</text>
</g>
<!-- initialize_ui -->
<g id="node2" class="node">
<title>initialize_ui</title>
<path fill="#f7fafc" stroke="#64748b" d="M989.03,-1144.2C989.03,-1144.2 824,-1144.2 824,-1144.2 818,-1144.2 812,-1138.2 812,-1132.2 812,-1132.2 812,-1108.68 812,-1108.68 812,-1102.68 818,-1096.68 824,-1096.68 824,-1096.68 989.03,-1096.68 989.03,-1096.68 995.03,-1096.68 1001.03,-1102.68 1001.03,-1108.68 1001.03,-1108.68 1001.03,-1132.2 1001.03,-1132.2 1001.03,-1138.2 995.03,-1144.2 989.03,-1144.2"/>
<text xml:space="preserve" text-anchor="middle" x="906.51" y="-1127.99" font-family="Helvetica,sans-Serif" font-size="11.00">Initialize popup UI</text>
<text xml:space="preserve" text-anchor="middle" x="906.51" y="-1115.99" font-family="Helvetica,sans-Serif" font-size="11.00">&#45; Default duration mode: 25 minutes</text>
<text xml:space="preserve" text-anchor="middle" x="906.51" y="-1103.99" font-family="Helvetica,sans-Serif" font-size="11.00">&#45; Attach button listeners</text>
</g>
<!-- user_opens_panel&#45;&gt;initialize_ui -->
<g id="edge1" class="edge">
<title>user_opens_panel&#45;&gt;initialize_ui</title>
<path fill="none" stroke="#475569" d="M906.51,-1209.09C906.51,-1209.09 906.51,-1153.18 906.51,-1153.18"/>
<polygon fill="#475569" stroke="#475569" points="908.97,-1153.18 906.52,-1146.18 904.07,-1153.18 908.97,-1153.18"/>
</g>
<!-- initial_refresh -->
<g id="node3" class="node">
<title>initial_refresh</title>
<path fill="#f7fafc" stroke="#64748b" d="M960.9,-1031.68C960.9,-1031.68 852.12,-1031.68 852.12,-1031.68 846.12,-1031.68 840.12,-1025.68 840.12,-1019.68 840.12,-1019.68 840.12,-984.16 840.12,-984.16 840.12,-978.16 846.12,-972.16 852.12,-972.16 852.12,-972.16 960.9,-972.16 960.9,-972.16 966.9,-972.16 972.9,-978.16 972.9,-984.16 972.9,-984.16 972.9,-1019.68 972.9,-1019.68 972.9,-1025.68 966.9,-1031.68 960.9,-1031.68"/>
<text xml:space="preserve" text-anchor="middle" x="906.51" y="-1015.47" font-family="Helvetica,sans-Serif" font-size="11.00">Initial refresh</text>
<text xml:space="preserve" text-anchor="middle" x="906.51" y="-1003.47" font-family="Helvetica,sans-Serif" font-size="11.00">refreshAllDisplays()</text>
<text xml:space="preserve" text-anchor="middle" x="906.51" y="-991.47" font-family="Helvetica,sans-Serif" font-size="11.00">&#45; getTimerState</text>
<text xml:space="preserve" text-anchor="middle" x="906.51" y="-979.47" font-family="Helvetica,sans-Serif" font-size="11.00">&#45; getDuckRewardsState</text>
</g>
<!-- initialize_ui&#45;&gt;initial_refresh -->
<g id="edge2" class="edge">
<title>initialize_ui&#45;&gt;initial_refresh</title>
<path fill="none" stroke="#475569" d="M906.51,-1096.46C906.51,-1096.46 906.51,-1040.27 906.51,-1040.27"/>
<polygon fill="#475569" stroke="#475569" points="908.97,-1040.27 906.52,-1033.27 904.07,-1040.27 908.97,-1040.27"/>
</g>
<!-- timer_and_reward_display -->
<g id="node4" class="node">
<title>timer_and_reward_display</title>
<path fill="#f7fafc" stroke="#64748b" d="M1002.9,-907.16C1002.9,-907.16 810.12,-907.16 810.12,-907.16 804.12,-907.16 798.12,-901.16 798.12,-895.16 798.12,-895.16 798.12,-847.64 798.12,-847.64 798.12,-841.64 804.12,-835.64 810.12,-835.64 810.12,-835.64 1002.9,-835.64 1002.9,-835.64 1008.9,-835.64 1014.9,-841.64 1014.9,-847.64 1014.9,-847.64 1014.9,-895.16 1014.9,-895.16 1014.9,-901.16 1008.9,-907.16 1002.9,-907.16"/>
<text xml:space="preserve" text-anchor="middle" x="906.51" y="-890.95" font-family="Helvetica,sans-Serif" font-size="11.00">Render persistent display</text>
<text xml:space="preserve" text-anchor="middle" x="906.51" y="-878.95" font-family="Helvetica,sans-Serif" font-size="11.00">&#45; Selected reward text above timer</text>
<text xml:space="preserve" text-anchor="middle" x="906.51" y="-866.95" font-family="Helvetica,sans-Serif" font-size="11.00">&#45; Main timer</text>
<text xml:space="preserve" text-anchor="middle" x="906.51" y="-854.95" font-family="Helvetica,sans-Serif" font-size="11.00">&#45; Reward time left below timer</text>
<text xml:space="preserve" text-anchor="middle" x="906.51" y="-842.95" font-family="Helvetica,sans-Serif" font-size="11.00">&#45; Claim button visible only when claimable</text>
</g>
<!-- initial_refresh&#45;&gt;timer_and_reward_display -->
<g id="edge3" class="edge">
<title>initial_refresh&#45;&gt;timer_and_reward_display</title>
<path fill="none" stroke="#475569" d="M906.51,-971.98C906.51,-971.98 906.51,-915.75 906.51,-915.75"/>
<polygon fill="#475569" stroke="#475569" points="908.97,-915.75 906.52,-908.75 904.07,-915.75 908.97,-915.75"/>
</g>
<!-- polling_refresh -->
<g id="node5" class="node">
<title>polling_refresh</title>
<path fill="#f7fafc" stroke="#64748b" d="M1500.15,-634.36C1500.15,-634.36 1344.87,-634.36 1344.87,-634.36 1338.87,-634.36 1332.87,-628.36 1332.87,-622.36 1332.87,-622.36 1332.87,-610.36 1332.87,-610.36 1332.87,-604.36 1338.87,-598.36 1344.87,-598.36 1344.87,-598.36 1500.15,-598.36 1500.15,-598.36 1506.15,-598.36 1512.15,-604.36 1512.15,-610.36 1512.15,-610.36 1512.15,-622.36 1512.15,-622.36 1512.15,-628.36 1506.15,-634.36 1500.15,-634.36"/>
<text xml:space="preserve" text-anchor="middle" x="1422.51" y="-617.91" font-family="Helvetica,sans-Serif" font-size="11.00">Background polling every 1000ms</text>
<text xml:space="preserve" text-anchor="middle" x="1422.51" y="-605.91" font-family="Helvetica,sans-Serif" font-size="11.00">refreshAllDisplays()</text>
</g>
<!-- timer_and_reward_display&#45;&gt;polling_refresh -->
<g id="edge4" class="edge">
<title>timer_and_reward_display:e&#45;&gt;polling_refresh:n</title>
<path fill="none" stroke="#475569" d="M1014.9,-877C1014.9,-877 1452.39,-877 1452.39,-877 1452.39,-877 1452.39,-642.87 1452.39,-642.87"/>
<polygon fill="#475569" stroke="#475569" points="1454.85,-642.87 1452.4,-635.87 1449.95,-642.87 1454.85,-642.87"/>
</g>
<!-- choose_duration -->
<g id="node6" class="node">
<title>choose_duration</title>
<path fill="#f7fafc" stroke="#64748b" d="M93.03,-646.12C93.03,-646.12 12,-646.12 12,-646.12 6,-646.12 0,-640.12 0,-634.12 0,-634.12 0,-598.6 0,-598.6 0,-592.6 6,-586.6 12,-586.6 12,-586.6 93.03,-586.6 93.03,-586.6 99.03,-586.6 105.03,-592.6 105.03,-598.6 105.03,-598.6 105.03,-634.12 105.03,-634.12 105.03,-640.12 99.03,-646.12 93.03,-646.12"/>
<text xml:space="preserve" text-anchor="middle" x="52.51" y="-629.91" font-family="Helvetica,sans-Serif" font-size="11.00">User sets duration</text>
<text xml:space="preserve" text-anchor="middle" x="52.51" y="-617.91" font-family="Helvetica,sans-Serif" font-size="11.00">&#45; 25m preset</text>
<text xml:space="preserve" text-anchor="middle" x="52.51" y="-605.91" font-family="Helvetica,sans-Serif" font-size="11.00">&#45; 50m preset</text>
<text xml:space="preserve" text-anchor="middle" x="52.51" y="-593.91" font-family="Helvetica,sans-Serif" font-size="11.00">&#45; Custom minutes</text>
</g>
<!-- timer_and_reward_display&#45;&gt;choose_duration -->
<g id="edge6" class="edge">
<title>timer_and_reward_display:w&#45;&gt;choose_duration:n</title>
<path fill="none" stroke="#475569" d="M798.12,-893C798.12,-893 35.01,-893 35.01,-893 35.01,-893 35.01,-654.63 35.01,-654.63"/>
<polygon fill="#475569" stroke="#475569" points="37.46,-654.63 35.01,-647.63 32.56,-654.63 37.46,-654.63"/>
</g>
<!-- start_timer -->
<g id="node7" class="node">
<title>start_timer</title>
<path fill="#f7fafc" stroke="#64748b" d="M630.28,-770.64C630.28,-770.64 466.75,-770.64 466.75,-770.64 460.75,-770.64 454.75,-764.64 454.75,-758.64 454.75,-758.64 454.75,-723.12 454.75,-723.12 454.75,-717.12 460.75,-711.12 466.75,-711.12 466.75,-711.12 630.28,-711.12 630.28,-711.12 636.28,-711.12 642.28,-717.12 642.28,-723.12 642.28,-723.12 642.28,-758.64 642.28,-758.64 642.28,-764.64 636.28,-770.64 630.28,-770.64"/>
<text xml:space="preserve" text-anchor="middle" x="548.51" y="-754.43" font-family="Helvetica,sans-Serif" font-size="11.00">Start or Resume</text>
<text xml:space="preserve" text-anchor="middle" x="548.51" y="-742.43" font-family="Helvetica,sans-Serif" font-size="11.00">&#45; send startTimer(durationSeconds)</text>
<text xml:space="preserve" text-anchor="middle" x="548.51" y="-730.43" font-family="Helvetica,sans-Serif" font-size="11.00">&#45; update timer display</text>
<text xml:space="preserve" text-anchor="middle" x="548.51" y="-718.43" font-family="Helvetica,sans-Serif" font-size="11.00">&#45; refresh duck rewards</text>
</g>
<!-- timer_and_reward_display&#45;&gt;start_timer -->
<g id="edge7" class="edge">
<title>timer_and_reward_display:s&#45;&gt;start_timer:n</title>
<path fill="none" stroke="#475569" d="M906.51,-864C906.51,-864 548.51,-864 548.51,-864 548.51,-864 548.51,-779.15 548.51,-779.15"/>
<polygon fill="#475569" stroke="#475569" points="550.97,-779.15 548.52,-772.15 546.07,-779.15 550.97,-779.15"/>
</g>
<!-- pause_timer -->
<g id="node8" class="node">
<title>pause_timer</title>
<path fill="#f7fafc" stroke="#64748b" d="M290.03,-640.12C290.03,-640.12 167,-640.12 167,-640.12 161,-640.12 155,-634.12 155,-628.12 155,-628.12 155,-604.6 155,-604.6 155,-598.6 161,-592.6 167,-592.6 167,-592.6 290.03,-592.6 290.03,-592.6 296.03,-592.6 302.03,-598.6 302.03,-604.6 302.03,-604.6 302.03,-628.12 302.03,-628.12 302.03,-634.12 296.03,-640.12 290.03,-640.12"/>
<text xml:space="preserve" text-anchor="middle" x="228.51" y="-623.91" font-family="Helvetica,sans-Serif" font-size="11.00">Pause</text>
<text xml:space="preserve" text-anchor="middle" x="228.51" y="-611.91" font-family="Helvetica,sans-Serif" font-size="11.00">&#45; send pauseTimer</text>
<text xml:space="preserve" text-anchor="middle" x="228.51" y="-599.91" font-family="Helvetica,sans-Serif" font-size="11.00">&#45; update timer and rewards</text>
</g>
<!-- timer_and_reward_display&#45;&gt;pause_timer -->
<g id="edge8" class="edge">
<title>timer_and_reward_display:sw&#45;&gt;pause_timer:n</title>
<path fill="none" stroke="#475569" d="M789.61,-879C789.61,-879 228.51,-879 228.51,-879 228.51,-879 228.51,-648.63 228.51,-648.63"/>
<polygon fill="#475569" stroke="#475569" points="789.61,-881.45 796.61,-879 789.61,-876.55 789.61,-881.45"/>
<polygon fill="#475569" stroke="#475569" points="230.97,-648.63 228.52,-641.63 226.07,-648.63 230.97,-648.63"/>
</g>
<!-- reset_timer -->
<g id="node9" class="node">
<title>reset_timer</title>
<path fill="#f7fafc" stroke="#64748b" d="M1747.15,-646.12C1747.15,-646.12 1573.87,-646.12 1573.87,-646.12 1567.87,-646.12 1561.87,-640.12 1561.87,-634.12 1561.87,-634.12 1561.87,-598.6 1561.87,-598.6 1561.87,-592.6 1567.87,-586.6 1573.87,-586.6 1573.87,-586.6 1747.15,-586.6 1747.15,-586.6 1753.15,-586.6 1759.15,-592.6 1759.15,-598.6 1759.15,-598.6 1759.15,-634.12 1759.15,-634.12 1759.15,-640.12 1753.15,-646.12 1747.15,-646.12"/>
<text xml:space="preserve" text-anchor="middle" x="1660.51" y="-629.91" font-family="Helvetica,sans-Serif" font-size="11.00">Reset</text>
<text xml:space="preserve" text-anchor="middle" x="1660.51" y="-617.91" font-family="Helvetica,sans-Serif" font-size="11.00">&#45; send resetTimer</text>
<text xml:space="preserve" text-anchor="middle" x="1660.51" y="-605.91" font-family="Helvetica,sans-Serif" font-size="11.00">&#45; timer resets to session start duration</text>
<text xml:space="preserve" text-anchor="middle" x="1660.51" y="-593.91" font-family="Helvetica,sans-Serif" font-size="11.00">&#45; reward progress remains</text>
</g>
<!-- timer_and_reward_display&#45;&gt;reset_timer -->
<g id="edge9" class="edge">
<title>timer_and_reward_display:e&#45;&gt;reset_timer:n</title>
<path fill="none" stroke="#475569" d="M1014.9,-887C1014.9,-887 1627.63,-887 1627.63,-887 1627.63,-887 1627.63,-654.63 1627.63,-654.63"/>
<polygon fill="#475569" stroke="#475569" points="1630.09,-654.63 1627.64,-647.63 1625.19,-654.63 1630.09,-654.63"/>
</g>
<!-- select_reward -->
<g id="node10" class="node">
<title>select_reward</title>
<path fill="#f7fafc" stroke="#64748b" d="M1013.15,-634.36C1013.15,-634.36 845.88,-634.36 845.88,-634.36 839.88,-634.36 833.88,-628.36 833.88,-622.36 833.88,-622.36 833.88,-610.36 833.88,-610.36 833.88,-604.36 839.88,-598.36 845.88,-598.36 845.88,-598.36 1013.15,-598.36 1013.15,-598.36 1019.15,-598.36 1025.15,-604.36 1025.15,-610.36 1025.15,-610.36 1025.15,-622.36 1025.15,-622.36 1025.15,-628.36 1019.15,-634.36 1013.15,-634.36"/>
<text xml:space="preserve" text-anchor="middle" x="929.51" y="-617.91" font-family="Helvetica,sans-Serif" font-size="11.00">Select duck reward</text>
<text xml:space="preserve" text-anchor="middle" x="929.51" y="-605.91" font-family="Helvetica,sans-Serif" font-size="11.00">&#45; Set Duck Egg 1 or Set Duck Egg 2</text>
</g>
<!-- timer_and_reward_display&#45;&gt;select_reward -->
<g id="edge10" class="edge">
<title>timer_and_reward_display:se&#45;&gt;select_reward:n</title>
<path fill="none" stroke="#475569" d="M976.72,-835.64C976.72,-835.64 976.72,-642.87 976.72,-642.87"/>
<polygon fill="#475569" stroke="#475569" points="979.17,-642.87 976.72,-635.87 974.27,-642.87 979.17,-642.87"/>
</g>
<!-- persistence_note -->
<g id="node18" class="node">
<title>persistence_note</title>
<path fill="#eff6ff" stroke="#3b82f6" d="M926.53,-770.64C926.53,-770.64 704.5,-770.64 704.5,-770.64 698.5,-770.64 692.5,-764.64 692.5,-758.64 692.5,-758.64 692.5,-723.12 692.5,-723.12 692.5,-717.12 698.5,-711.12 704.5,-711.12 704.5,-711.12 926.53,-711.12 926.53,-711.12 932.53,-711.12 938.53,-717.12 938.53,-723.12 938.53,-723.12 938.53,-758.64 938.53,-758.64 938.53,-764.64 932.53,-770.64 926.53,-770.64"/>
<text xml:space="preserve" text-anchor="middle" x="815.51" y="-754.43" font-family="Helvetica,sans-Serif" font-size="11.00">Persistence behavior</text>
<text xml:space="preserve" text-anchor="middle" x="815.51" y="-742.43" font-family="Helvetica,sans-Serif" font-size="11.00">&#45; Timer state: chrome.storage.session</text>
<text xml:space="preserve" text-anchor="middle" x="815.51" y="-730.43" font-family="Helvetica,sans-Serif" font-size="11.00">&#45; Reward state and ducks: chrome.storage.local</text>
<text xml:space="preserve" text-anchor="middle" x="815.51" y="-718.43" font-family="Helvetica,sans-Serif" font-size="11.00">&#45; Rehydrates when panel reopens</text>
</g>
<!-- timer_and_reward_display&#45;&gt;persistence_note -->
<g id="edge24" class="edge">
<title>timer_and_reward_display&#45;&gt;persistence_note</title>
<path fill="none" stroke="#475569" stroke-dasharray="5,2" d="M868.33,-835.39C868.33,-815.17 868.33,-790.22 868.33,-771.04"/>
</g>
<!-- polling_refresh&#45;&gt;timer_and_reward_display -->
<g id="edge5" class="edge">
<title>polling_refresh:n&#45;&gt;timer_and_reward_display:e</title>
<path fill="none" stroke="#475569" d="M1392.63,-634.36C1392.63,-634.36 1392.63,-866 1392.63,-866 1392.63,-866 1023.42,-866 1023.42,-866"/>
<polygon fill="#475569" stroke="#475569" points="1023.42,-863.55 1016.42,-866 1023.42,-868.45 1023.42,-863.55"/>
</g>
<!-- choose_duration&#45;&gt;start_timer -->
<g id="edge11" class="edge">
<title>choose_duration&#45;&gt;start_timer</title>
<path fill="none" stroke="#475569" d="M70.02,-646.53C70.02,-683.42 70.02,-741 70.02,-741 70.02,-741 445.75,-741 445.75,-741"/>
<polygon fill="#475569" stroke="#475569" points="445.75,-743.45 452.75,-741 445.75,-738.55 445.75,-743.45"/>
</g>
<!-- selected_reward_progress -->
<g id="node15" class="node">
<title>selected_reward_progress</title>
<path fill="#f7fafc" stroke="#64748b" d="M1013.15,-296.56C1013.15,-296.56 815.88,-296.56 815.88,-296.56 809.88,-296.56 803.88,-290.56 803.88,-284.56 803.88,-284.56 803.88,-261.04 803.88,-261.04 803.88,-255.04 809.88,-249.04 815.88,-249.04 815.88,-249.04 1013.15,-249.04 1013.15,-249.04 1019.15,-249.04 1025.15,-255.04 1025.15,-261.04 1025.15,-261.04 1025.15,-284.56 1025.15,-284.56 1025.15,-290.56 1019.15,-296.56 1013.15,-296.56"/>
<text xml:space="preserve" text-anchor="middle" x="914.51" y="-280.35" font-family="Helvetica,sans-Serif" font-size="11.00">While timer runs</text>
<text xml:space="preserve" text-anchor="middle" x="914.51" y="-268.35" font-family="Helvetica,sans-Serif" font-size="11.00">reward progress accumulates continuously</text>
<text xml:space="preserve" text-anchor="middle" x="914.51" y="-256.35" font-family="Helvetica,sans-Serif" font-size="11.00">(timestamp based in background)</text>
</g>
<!-- start_timer&#45;&gt;selected_reward_progress -->
<g id="edge12" class="edge">
<title>start_timer&#45;&gt;selected_reward_progress</title>
<path fill="none" stroke="#475569" d="M513.94,-710.9C513.94,-607.63 513.94,-273 513.94,-273 513.94,-273 794.95,-273 794.95,-273"/>
<polygon fill="#475569" stroke="#475569" points="794.95,-275.45 801.95,-273 794.95,-270.55 794.95,-275.45"/>
</g>
<!-- reset_timer&#45;&gt;timer_and_reward_display -->
<g id="edge13" class="edge">
<title>reset_timer&#45;&gt;timer_and_reward_display:e</title>
<path fill="none" stroke="#475569" d="M1693.39,-646.39C1693.39,-718.79 1693.39,-897 1693.39,-897 1693.39,-897 1023.42,-897 1023.42,-897"/>
<polygon fill="#475569" stroke="#475569" points="1023.42,-894.55 1016.42,-897 1023.42,-899.45 1023.42,-894.55"/>
</g>
<!-- select_reward_guard -->
<g id="node11" class="node">
<title>select_reward_guard</title>
<path fill="#f7fafc" stroke="#64748b" d="M1005.53,-521.6C1005.53,-521.6 837.5,-521.6 837.5,-521.6 831.5,-521.6 825.5,-515.6 825.5,-509.6 825.5,-509.6 825.5,-486.08 825.5,-486.08 825.5,-480.08 831.5,-474.08 837.5,-474.08 837.5,-474.08 1005.53,-474.08 1005.53,-474.08 1011.53,-474.08 1017.53,-480.08 1017.53,-486.08 1017.53,-486.08 1017.53,-509.6 1017.53,-509.6 1017.53,-515.6 1011.53,-521.6 1005.53,-521.6"/>
<text xml:space="preserve" text-anchor="middle" x="921.51" y="-505.39" font-family="Helvetica,sans-Serif" font-size="11.00">Guard</text>
<text xml:space="preserve" text-anchor="middle" x="921.51" y="-493.39" font-family="Helvetica,sans-Serif" font-size="11.00">Reward selection allowed only when</text>
<text xml:space="preserve" text-anchor="middle" x="921.51" y="-481.39" font-family="Helvetica,sans-Serif" font-size="11.00">timer is not running</text>
</g>
<!-- select_reward&#45;&gt;select_reward_guard -->
<g id="edge14" class="edge">
<title>select_reward&#45;&gt;select_reward_guard</title>
<path fill="none" stroke="#475569" d="M925.7,-598.1C925.7,-598.1 925.7,-530.59 925.7,-530.59"/>
<polygon fill="#475569" stroke="#475569" points="928.15,-530.59 925.7,-523.59 923.25,-530.59 928.15,-530.59"/>
</g>
<!-- select_reward_allowed_idle -->
<g id="node12" class="node">
<title>select_reward_allowed_idle</title>
<path fill="#f7fafc" stroke="#64748b" d="M759.9,-403.32C759.9,-403.32 585.12,-403.32 585.12,-403.32 579.12,-403.32 573.12,-397.32 573.12,-391.32 573.12,-391.32 573.12,-379.32 573.12,-379.32 573.12,-373.32 579.12,-367.32 585.12,-367.32 585.12,-367.32 759.9,-367.32 759.9,-367.32 765.9,-367.32 771.9,-373.32 771.9,-379.32 771.9,-379.32 771.9,-391.32 771.9,-391.32 771.9,-397.32 765.9,-403.32 759.9,-403.32"/>
<text xml:space="preserve" text-anchor="middle" x="672.51" y="-386.87" font-family="Helvetica,sans-Serif" font-size="11.00">Allowed while timer is idle</text>
<text xml:space="preserve" text-anchor="middle" x="672.51" y="-374.87" font-family="Helvetica,sans-Serif" font-size="11.00">selection updates and progress resets</text>
</g>
<!-- select_reward_guard&#45;&gt;select_reward_allowed_idle -->
<g id="edge16" class="edge">
<title>select_reward_guard&#45;&gt;select_reward_allowed_idle</title>
<path fill="none" stroke="#475569" d="M825.19,-498C778.43,-498 732.2,-498 732.2,-498 732.2,-498 732.2,-412.19 732.2,-412.19"/>
<polygon fill="#475569" stroke="#475569" points="734.65,-412.19 732.2,-405.19 729.75,-412.19 734.65,-412.19"/>
</g>
<!-- select_reward_allowed_running_later -->
<g id="node13" class="node">
<title>select_reward_allowed_running_later</title>
<path fill="#f7fafc" stroke="#64748b" d="M995.15,-403.32C995.15,-403.32 833.88,-403.32 833.88,-403.32 827.88,-403.32 821.88,-397.32 821.88,-391.32 821.88,-391.32 821.88,-379.32 821.88,-379.32 821.88,-373.32 827.88,-367.32 833.88,-367.32 833.88,-367.32 995.15,-367.32 995.15,-367.32 1001.15,-367.32 1007.15,-373.32 1007.15,-379.32 1007.15,-379.32 1007.15,-391.32 1007.15,-391.32 1007.15,-397.32 1001.15,-403.32 995.15,-403.32"/>
<text xml:space="preserve" text-anchor="middle" x="914.51" y="-386.87" font-family="Helvetica,sans-Serif" font-size="11.00">Allowed now, then timer starts later</text>
<text xml:space="preserve" text-anchor="middle" x="914.51" y="-374.87" font-family="Helvetica,sans-Serif" font-size="11.00">progress begins from zero</text>
</g>
<!-- select_reward_guard&#45;&gt;select_reward_allowed_running_later -->
<g id="edge15" class="edge">
<title>select_reward_guard&#45;&gt;select_reward_allowed_running_later</title>
<path fill="none" stroke="#475569" d="M916.33,-473.7C916.33,-473.7 916.33,-412.02 916.33,-412.02"/>
<polygon fill="#475569" stroke="#475569" points="918.78,-412.02 916.33,-405.02 913.88,-412.02 918.78,-412.02"/>
</g>
<!-- select_reward_denied -->
<g id="node14" class="node">
<title>select_reward_denied</title>
<path fill="#f7fafc" stroke="#64748b" d="M1168.03,-409.08C1168.03,-409.08 1069,-409.08 1069,-409.08 1063,-409.08 1057,-403.08 1057,-397.08 1057,-397.08 1057,-373.56 1057,-373.56 1057,-367.56 1063,-361.56 1069,-361.56 1069,-361.56 1168.03,-361.56 1168.03,-361.56 1174.03,-361.56 1180.03,-367.56 1180.03,-373.56 1180.03,-373.56 1180.03,-397.08 1180.03,-397.08 1180.03,-403.08 1174.03,-409.08 1168.03,-409.08"/>
<text xml:space="preserve" text-anchor="middle" x="1118.51" y="-392.87" font-family="Helvetica,sans-Serif" font-size="11.00">If timer is running</text>
<text xml:space="preserve" text-anchor="middle" x="1118.51" y="-380.87" font-family="Helvetica,sans-Serif" font-size="11.00">&#45; Keep current reward</text>
<text xml:space="preserve" text-anchor="middle" x="1118.51" y="-368.87" font-family="Helvetica,sans-Serif" font-size="11.00">&#45; Show error text</text>
</g>
<!-- select_reward_guard&#45;&gt;select_reward_denied -->
<g id="edge17" class="edge">
<title>select_reward_guard&#45;&gt;select_reward_denied</title>
<path fill="none" stroke="#475569" d="M1012.34,-473.63C1012.34,-440.48 1012.34,-385 1012.34,-385 1012.34,-385 1048.24,-385 1048.24,-385"/>
<polygon fill="#475569" stroke="#475569" points="1048.24,-387.45 1055.24,-385 1048.24,-382.55 1048.24,-387.45"/>
</g>
<!-- select_reward_allowed_idle&#45;&gt;timer_and_reward_display -->
<g id="edge19" class="edge">
<title>select_reward_allowed_idle&#45;&gt;timer_and_reward_display:sw</title>
<path fill="none" stroke="#475569" d="M667.39,-403.54C667.39,-489.45 667.39,-850 667.39,-850 667.39,-850 789.61,-850 789.61,-850"/>
<polygon fill="#475569" stroke="#475569" points="789.61,-852.45 796.61,-850 789.61,-847.55 789.61,-852.45"/>
</g>
<!-- select_reward_allowed_running_later&#45;&gt;selected_reward_progress -->
<g id="edge18" class="edge">
<title>select_reward_allowed_running_later&#45;&gt;selected_reward_progress</title>
<path fill="none" stroke="#475569" d="M914.51,-366.99C914.51,-366.99 914.51,-305.53 914.51,-305.53"/>
<polygon fill="#475569" stroke="#475569" points="916.97,-305.53 914.52,-298.53 912.07,-305.53 916.97,-305.53"/>
</g>
<!-- select_reward_denied&#45;&gt;timer_and_reward_display -->
<g id="edge20" class="edge">
<title>select_reward_denied&#45;&gt;timer_and_reward_display:se</title>
<path fill="none" stroke="#475569" d="M1118.51,-409.44C1118.51,-504.23 1118.51,-846 1118.51,-846 1118.51,-846 1023.42,-846 1023.42,-846"/>
<polygon fill="#475569" stroke="#475569" points="1023.42,-843.55 1016.42,-846 1023.42,-848.45 1023.42,-843.55"/>
</g>
<!-- claim_available -->
<g id="node16" class="node">
<title>claim_available</title>
<path fill="#f7fafc" stroke="#64748b" d="M1082.15,-184.04C1082.15,-184.04 920.88,-184.04 920.88,-184.04 914.88,-184.04 908.88,-178.04 908.88,-172.04 908.88,-172.04 908.88,-148.52 908.88,-148.52 908.88,-142.52 914.88,-136.52 920.88,-136.52 920.88,-136.52 1082.15,-136.52 1082.15,-136.52 1088.15,-136.52 1094.15,-142.52 1094.15,-148.52 1094.15,-148.52 1094.15,-172.04 1094.15,-172.04 1094.15,-178.04 1088.15,-184.04 1082.15,-184.04"/>
<text xml:space="preserve" text-anchor="middle" x="1001.51" y="-167.83" font-family="Helvetica,sans-Serif" font-size="11.00">When reward requirement reached</text>
<text xml:space="preserve" text-anchor="middle" x="1001.51" y="-155.83" font-family="Helvetica,sans-Serif" font-size="11.00">claim button appears</text>
<text xml:space="preserve" text-anchor="middle" x="1001.51" y="-143.83" font-family="Helvetica,sans-Serif" font-size="11.00">(capped at one unclaimed reward)</text>
</g>
<!-- selected_reward_progress&#45;&gt;claim_available -->
<g id="edge21" class="edge">
<title>selected_reward_progress&#45;&gt;claim_available</title>
<path fill="none" stroke="#475569" d="M967.01,-248.66C967.01,-248.66 967.01,-192.89 967.01,-192.89"/>
<polygon fill="#475569" stroke="#475569" points="969.47,-192.89 967.02,-185.89 964.57,-192.89 969.47,-192.89"/>
</g>
<!-- claim_reward -->
<g id="node17" class="node">
<title>claim_reward</title>
<path fill="#f7fafc" stroke="#64748b" d="M1163.53,-71.52C1163.53,-71.52 1007.5,-71.52 1007.5,-71.52 1001.5,-71.52 995.5,-65.52 995.5,-59.52 995.5,-59.52 995.5,-12 995.5,-12 995.5,-6 1001.5,0 1007.5,0 1007.5,0 1163.53,0 1163.53,0 1169.53,0 1175.53,-6 1175.53,-12 1175.53,-12 1175.53,-59.52 1175.53,-59.52 1175.53,-65.52 1169.53,-71.52 1163.53,-71.52"/>
<text xml:space="preserve" text-anchor="middle" x="1085.51" y="-55.31" font-family="Helvetica,sans-Serif" font-size="11.00">Claim Duck</text>
<text xml:space="preserve" text-anchor="middle" x="1085.51" y="-43.31" font-family="Helvetica,sans-Serif" font-size="11.00">&#45; send claimSelectedDuckReward</text>
<text xml:space="preserve" text-anchor="middle" x="1085.51" y="-31.31" font-family="Helvetica,sans-Serif" font-size="11.00">&#45; store new duck object</text>
<text xml:space="preserve" text-anchor="middle" x="1085.51" y="-19.31" font-family="Helvetica,sans-Serif" font-size="11.00">&#45; clear selected reward</text>
<text xml:space="preserve" text-anchor="middle" x="1085.51" y="-7.31" font-family="Helvetica,sans-Serif" font-size="11.00">&#45; user must select a new reward</text>
</g>
<!-- claim_available&#45;&gt;claim_reward -->
<g id="edge22" class="edge">
<title>claim_available&#45;&gt;claim_reward</title>
<path fill="none" stroke="#475569" d="M1044.83,-136.27C1044.83,-136.27 1044.83,-80.48 1044.83,-80.48"/>
<polygon fill="#475569" stroke="#475569" points="1047.28,-80.48 1044.83,-73.48 1042.38,-80.48 1047.28,-80.48"/>
</g>
<!-- claim_reward&#45;&gt;timer_and_reward_display -->
<g id="edge23" class="edge">
<title>claim_reward&#45;&gt;timer_and_reward_display:se</title>
<path fill="none" stroke="#475569" d="M1175.99,-36C1216.99,-36 1256.45,-36 1256.45,-36 1256.45,-36 1256.45,-856 1256.45,-856 1256.45,-856 1023.42,-856 1023.42,-856"/>
<polygon fill="#475569" stroke="#475569" points="1023.42,-853.55 1016.42,-856 1023.42,-858.45 1023.42,-853.55"/>
</g>
</g>
</svg>
